<?xml version="1.0" ?><svg viewBox="0 0 64 64" xmlns="http://www.w3.org/2000/svg"><g id="a"/><g id="b"/><g id="c"/><g id="d"/><g id="e"/><g id="f"/><g id="g"/><g id="h"/><g id="i"/><g id="j"/><g id="k"/><g id="l"/><g id="m"/><g id="n"/><g id="o"/><g id="p"/><g id="q"/><g id="r"/><g id="s"/><g id="t"/><g id="u"/><g id="v"/><g id="w"><path d="M5.94,44.53l-.9,7.2c-.21,1.67,.52,3.3,2.15,3.73l9.69,2.6c1.63,.44,3.08-.6,3.73-2.16l2.82-6.68-8.05-4.95-9.44,.26Zm20.09-1.51l.59-1.39c1.47-3.5,.17-7.28-2.51-9.82-.89-.85-1.47-2.33-1.11-3.51l1.24-4.06-3.35-1.9-3.17,.15-.96,4.14c-.28,1.2-1.52,2.19-2.72,2.48-3.59,.86-6.61,3.48-7.08,7.25l-.19,1.5,9,4.83,10.26,.33Z" fill="#a1f3c0" fill-rule="evenodd"/><path d="M20.89,22.35l-3.17,.15-.59,2.55c.08,.03,.15,.05,.24,.08l6.1,1.63,.77-2.52-3.35-1.9Z" fill="#8cebbc" fill-rule="evenodd"/><path d="M40.57,49.22l2.82,6.68c.65,1.56,2.1,2.59,3.73,2.16l9.69-2.6c1.63-.44,2.36-2.06,2.15-3.73l-.9-7.2-10.32-.6-7.17,5.28Zm16.65-11.35l-.19-1.5c-.47-3.77-3.49-6.39-7.08-7.25-1.2-.29-2.44-1.28-2.72-2.48l-.96-4.14-3.91-.3-2.61,2.05,1.24,4.06c.36,1.18-.22,2.66-1.11,3.51-2.68,2.54-3.98,6.32-2.51,9.82l.59,1.39,10.23-.4,9.03-4.76Z" fill="#a1f3c0" fill-rule="evenodd"/><path d="M42.37,22.2l-2.61,2.05,.77,2.52,6.1-1.63c.08-.02,.16-.05,.24-.08l-.59-2.55-3.91-.3Z" fill="#8cebbc" fill-rule="evenodd"/><path d="M22.35,19.8c1.02,.27,1.62,1.31,1.34,2.33-.27,1.01-1.3,1.61-2.32,1.35l2.85,.76c1.02,.27,2.05-.33,2.33-1.34,.27-1.02-.33-2.06-1.34-2.33l-2.86-.77Zm23.5-1.04c-.19,0-.38,.01-.57,.07l-2.85,.76c.19-.05,.38-.07,.56-.06,.81,.03,1.54,.58,1.76,1.41,.27,1.02-.33,2.06-1.34,2.33l2.86-.77c1.02-.27,1.62-1.31,1.34-2.33-.22-.83-.95-1.38-1.76-1.41Z" fill="#a1f3c0" fill-rule="evenodd"/><path d="M20.89,22.35l-.75,.04,2.55,1.45-1.24,4.06c-.36,1.18,.22,2.66,1.11,3.51,2.68,2.54,3.98,6.32,2.51,9.82l-6.01,14.27c-.66,1.56-2.1,2.59-3.73,2.16l1.55,.42c1.63,.44,3.08-.6,3.73-2.16l6.01-14.27c1.47-3.5,.17-7.28-2.51-9.82-.89-.85-1.47-2.33-1.11-3.51l1.24-4.06-3.35-1.9Z" fill="#8cebbc" fill-rule="evenodd"/><path d="M42.37,22.2l-.7,.55,2.86,.22,.96,4.14c.28,1.21,1.52,2.19,2.72,2.48,3.58,.86,6.61,3.48,7.08,7.25l1.93,15.36c.21,1.68-.52,3.3-2.15,3.73l1.74-.47c1.63-.44,2.36-2.06,2.15-3.73l-1.93-15.36c-.47-3.77-3.49-6.39-7.08-7.25-1.2-.29-2.44-1.28-2.72-2.48l-.96-4.14-3.91-.3Z" fill="#8cebbc" fill-rule="evenodd"/><path d="M18.71,18.83l6.5,1.74c1.02,.27,1.62,1.31,1.34,2.33-.27,1.02-1.31,1.62-2.33,1.34l-6.5-1.74c-1.02-.27-1.62-1.31-1.34-2.33,.27-1.02,1.31-1.62,2.33-1.34Z" fill="#b8f5d2" fill-rule="evenodd"/><path d="M45.29,18.83l-6.5,1.74c-1.02,.27-1.62,1.31-1.34,2.33,.27,1.02,1.31,1.62,2.33,1.34l6.5-1.74c1.02-.27,1.62-1.31,1.34-2.33-.27-1.02-1.31-1.62-2.33-1.34Z" fill="#b8f5d2" fill-rule="evenodd"/><path d="M46.2,35.26c2.48-.66,5.01,.8,5.68,3.28l.19,.71,5.15-1.38,.84,6.67-4.27,1.14,.19,.7c.66,2.48-.8,5.02-3.28,5.68-2.48,.66-5.01-.8-5.68-3.28l-.19-.7-4.27,1.14-2.61-6.19,5.15-1.38-.19-.71c-.66-2.48,.8-5.01,3.28-5.68Z" fill="#f5e680" fill-rule="evenodd"/><path d="M47.04,38.38c.81-.22,1.51,.19,1.73,1l2.1,7.84c.22,.81-.19,1.51-1,1.73-.81,.22-1.51-.19-1.73-1l-2.1-7.84c-.22-.81,.19-1.51,1-1.73Z" fill="#ebb680" fill-rule="evenodd"/><path d="M54.16,41.42c.47,.27,.63,.87,.36,1.34-.27,.47-.87,.63-1.34,.36-.47-.27-.63-.87-.36-1.34,.27-.47,.87-.63,1.34-.36Z" fill="#ebb680" fill-rule="evenodd"/><path d="M44.09,45.55c-.65,1.12-2.34,.14-1.7-.98s2.34-.14,1.7,.98Z" fill="#ebb680" fill-rule="evenodd"/><path d="M22.32,12.68c-1,0-1.8,.81-1.8,1.8,0,1,.81,1.81,1.8,1.81,1,0,1.81-.81,1.81-1.81,0-1-.81-1.8-1.81-1.8Zm7.21-6.22c-1.96,0-3.54,1.59-3.54,3.54,0,.93,.37,1.8,.99,2.45,.59,.62,.94,1.51,.94,2.37,0,1.89,1.53,3.42,3.42,3.42,1.09,0,2.09-.52,2.72-1.36,.38-.5,1.48-.88,2.7-.8,2.03,.12,3.64-1.94,3.64-4.37,0-2.43-1.97-4.39-4.39-4.4-.72,0-1.42,.18-2.04,.51-.7,.37-1.37,.23-1.93-.33-.65-.65-1.54-1.04-2.49-1.04Zm17.75-.62c-1,0-1.81,.81-1.81,1.81,0,1,.81,1.81,1.81,1.81,1,0,1.81-.81,1.81-1.81s-.81-1.81-1.81-1.81Z" fill="#f0f3f5" fill-rule="evenodd"/><path d="M22.32,12.68c-.41,0-.81,.15-1.13,.42,.42,.34,.67,.85,.67,1.39,0,.54-.24,1.05-.66,1.4,.32,.26,.71,.41,1.12,.41,1,0,1.81-.81,1.81-1.81,0-1-.81-1.8-1.81-1.8Zm13.67-5.36c-.39,0-.77,.05-1.13,.15,1.88,.5,3.26,2.21,3.26,4.24,0,2.43-1.62,4.49-3.64,4.37-1.22-.08-2.32,.3-2.7,.8-.4,.54-.96,.94-1.59,1.16,.36,.12,.74,.2,1.14,.2,1.09,0,2.09-.52,2.72-1.36,.38-.5,1.48-.88,2.7-.8,2.03,.12,3.64-1.94,3.64-4.37,0-2.43-1.97-4.39-4.39-4.4Zm-6.46-.85c-.4,0-.78,.07-1.14,.19,.51,.17,.98,.46,1.37,.85,.56,.56,1.23,.69,1.93,.33,.15-.08,.31-.15,.47-.21-.04-.04-.08-.07-.13-.11-.65-.65-1.54-1.04-2.49-1.04Zm17.75-.62c-.41,0-.81,.15-1.13,.41,.42,.34,.66,.85,.66,1.4s-.24,1.05-.66,1.4c.32,.26,.72,.41,1.13,.41,1,0,1.81-.81,1.81-1.81s-.81-1.81-1.81-1.81Z" fill="#e4ecf0" fill-rule="evenodd"/><polygon fill="#f2d865" fill-rule="evenodd" points="57.22 37.87 55.48 38.33 56.32 45 58.06 44.53 57.22 37.87"/><path d="M17.8,35.26c-2.48-.66-5.01,.8-5.68,3.28l-.19,.71-5.15-1.38-.84,6.67,4.27,1.14-.19,.7c-.66,2.48,.8,5.02,3.28,5.68,2.48,.66,5.01-.8,5.68-3.28l.19-.7,4.27,1.14,2.61-6.19-5.15-1.38,.19-.71c.66-2.48-.8-5.01-3.28-5.68Z" fill="#f5e680" fill-rule="evenodd"/><path d="M16.96,38.38c-.81-.22-1.51,.19-1.73,1l-2.1,7.84c-.22,.81,.19,1.51,1,1.73,.81,.22,1.51-.19,1.73-1l2.1-7.84c.22-.81-.19-1.51-1-1.73Z" fill="#ebb680" fill-rule="evenodd"/><path d="M9.84,41.42c-.47,.27-.63,.87-.36,1.34,.27,.47,.87,.63,1.34,.36,.47-.27,.63-.87,.36-1.34-.27-.47-.87-.63-1.34-.36Z" fill="#ebb680" fill-rule="evenodd"/><path d="M20.27,44.21c-.47,.27-.63,.87-.36,1.34,.27,.47,.87,.63,1.34,.36,.47-.27,.63-.87,.36-1.34s-.87-.63-1.34-.36Z" fill="#ebb680" fill-rule="evenodd"/><polygon fill="#f2d865" fill-rule="evenodd" points="24.48 42.61 21.88 48.8 23.43 49.22 24.99 45.5 26.03 43.03 24.48 42.61"/><path d="M6.93,56.43l9.69,2.6c.33,.09,.66,.13,.99,.13,1.64,0,3.17-1.08,3.92-2.86l5.42-12.88h0l.59-1.39c1.52-3.61,.45-7.9-2.74-10.93-.7-.66-1.07-1.76-.85-2.49l1.02-3.36c.41-.04,.83-.11,1.19-.32,.67-.39,1.15-1.01,1.35-1.76,.2-.75,.1-1.53-.29-2.2-.39-.67-1.01-1.15-1.76-1.35l-6.5-1.74c-1.55-.42-3.14,.51-3.55,2.05-.32,1.21,.19,2.43,1.16,3.11l-.78,3.39c-.17,.75-1.04,1.51-1.98,1.74-4.27,1.03-7.35,4.2-7.84,8.09l-1.93,15.36c-.29,2.31,.9,4.29,2.89,4.82Zm12.76-.91c-.43,1.01-1.38,1.89-2.55,1.58l-9.69-2.6c-1.25-.33-1.55-1.63-1.42-2.64l.76-6.06,2.2,.59c-.3,1.38-.08,2.79,.62,4.02,.75,1.3,1.97,2.23,3.43,2.62,.49,.13,.98,.19,1.46,.19,2.4,0,4.61-1.55,5.37-3.92l2.2,.59-2.37,5.63Zm-12.41-13.64l.35-2.75,4.04,1.08c.54,.14,1.08-.17,1.22-.71l.19-.71c.52-1.94,2.52-3.09,4.45-2.57,1.94,.52,3.09,2.52,2.57,4.45l-.19,.71c-.07,.26-.03,.53,.1,.76,.13,.23,.35,.4,.61,.47l4.04,1.08-1.82,4.33-3.42-.92c-.26-.07-.53-.03-.76,.1-.23,.13-.4,.35-.47,.61l-.19,.7c-.52,1.94-2.52,3.09-4.45,2.57-.94-.25-1.73-.85-2.21-1.69-.48-.84-.61-1.82-.36-2.76l.19-.7c.14-.53-.17-1.08-.71-1.22l-3.42-.92,.24-1.92Zm10.93-22.11c.08,0,.16,.01,.24,.03l6.5,1.74c.23,.06,.43,.21,.55,.42s.15,.45,.09,.69c-.06,.23-.21,.43-.42,.55-.21,.12-.45,.15-.68,.09l-6.5-1.74c-.49-.13-.77-.62-.64-1.1,.11-.41,.46-.67,.86-.67Zm-3.94,10.33c1.38-.33,3.06-1.49,3.46-3.23l.72-3.13,3.35,.9,1.17,.31-.94,3.07c-.52,1.71,.35,3.55,1.38,4.53,2.05,1.95,3.73,5.25,2.28,8.7l-.25,.59-3.35-.9c.63-2.92-1.14-5.86-4.05-6.64-2.92-.79-5.92,.88-6.83,3.73l-3.35-.9,.08-.63c.47-3.71,3.57-5.74,6.32-6.4Z"/><path d="M13.87,49.91c.23,.06,.46,.09,.68,.09,.41,0,.81-.1,1.16-.31,.54-.31,.93-.84,1.11-1.49l2.1-7.84c.17-.65,.1-1.3-.21-1.84-.31-.54-.84-.93-1.49-1.11h0c-1.35-.36-2.59,.36-2.95,1.7l-2.1,7.84c-.36,1.35,.35,2.59,1.7,2.95Zm2.33-10.28c.08-.28,.23-.36,.5-.29,.27,.07,.36,.23,.29,.5l-2.1,7.84c-.08,.28-.23,.36-.5,.29-.28-.07-.36-.23-.29-.5l2.1-7.84Z"/><path d="M11.31,42.26c0-.17-.05-.34-.13-.49-.17-.3-.5-.49-.85-.49-.17,0-.34,.05-.49,.13-.3,.17-.49,.5-.49,.85,0,.17,.04,.34,.13,.49,.17,.3,.5,.49,.85,.49,.17,0,.34-.05,.49-.13,.3-.17,.49-.5,.49-.85Z"/><path d="M21.25,45.91c.3-.18,.49-.5,.49-.85,0-.17-.04-.34-.13-.49-.17-.3-.5-.49-.85-.49-.17,0-.34,.05-.49,.13-.47,.27-.63,.87-.36,1.34,.27,.46,.87,.63,1.34,.36Z"/><path d="M36.77,20.96c-.39,.67-.49,1.45-.29,2.2,.2,.75,.68,1.38,1.35,1.76,.37,.21,.78,.28,1.19,.32l1.02,3.36c.22,.74-.15,1.83-.85,2.49-3.19,3.03-4.26,7.32-2.74,10.93l.59,1.39h0l5.42,12.88c.75,1.79,2.28,2.86,3.92,2.86,.33,0,.66-.04,.99-.13l9.69-2.6c1.99-.53,3.18-2.52,2.89-4.82l-1.93-15.36c-.49-3.89-3.57-7.07-7.84-8.09-.94-.23-1.81-.99-1.98-1.74l-.79-3.39c.97-.68,1.48-1.9,1.15-3.11-.42-1.54-2.01-2.47-3.55-2.05l-6.5,1.74c-.75,.2-1.38,.68-1.76,1.35Zm7.13,19.72c-.52-1.94,.64-3.94,2.57-4.45,1.94-.52,3.94,.64,4.45,2.57l.19,.71c.14,.53,.69,.85,1.22,.71l4.04-1.08,.39,3.08,.2,1.59-3.42,.92c-.53,.14-.85,.69-.71,1.22l.19,.7c.52,1.94-.63,3.94-2.57,4.46-1.94,.52-3.93-.63-4.45-2.57l-.19-.7c-.07-.26-.24-.47-.47-.61-.15-.09-.33-.13-.5-.13-.09,0-.17,.01-.26,.03l-3.42,.92-1.82-4.33,4.04-1.08c.26-.07,.48-.24,.61-.47,.13-.23,.17-.5,.1-.76l-.19-.7Zm12.66,13.81l-9.69,2.6c-1.25,.34-2.16-.64-2.55-1.58l-2.37-5.63,2.2-.59c.76,2.37,2.97,3.92,5.37,3.92,.48,0,.97-.06,1.46-.19,2.91-.78,4.68-3.72,4.05-6.64l2.2-.59,.76,6.05c.13,1.01-.17,2.31-1.42,2.64Zm-6.83-24.4c2.75,.66,5.85,2.69,6.32,6.4l.08,.63-3.35,.9c-.91-2.84-3.91-4.51-6.83-3.73-2.91,.78-4.68,3.72-4.05,6.64l-3.35,.9-.25-.59c-1.45-3.45,.22-6.76,2.27-8.7,1.03-.98,1.91-2.81,1.38-4.53l-.94-3.07,4.52-1.21,.72,3.13c.4,1.74,2.07,2.9,3.46,3.23Zm-4.18-10.3c.48-.13,.97,.16,1.1,.64,.13,.49-.15,.97-.64,1.1l-6.5,1.74c-.23,.06-.48,.03-.68-.09-.21-.12-.36-.31-.42-.55-.06-.23-.03-.48,.09-.68s.31-.36,.55-.42l6.5-1.74Z"/><path d="M47.18,48.21c.3,1.11,1.2,1.8,2.26,1.8,.22,0,.46-.03,.69-.09,1.35-.36,2.06-1.61,1.7-2.95l-2.1-7.84c-.17-.65-.57-1.18-1.11-1.49-.54-.31-1.19-.39-1.84-.21-.65,.17-1.18,.57-1.49,1.11-.31,.54-.39,1.2-.21,1.84l2.1,7.84Zm.12-8.86c.28-.08,.43,.01,.5,.29l2.1,7.84c.07,.27-.02,.43-.29,.5-.27,.08-.43-.02-.5-.29l-2.1-7.84c-.07-.28,.01-.43,.29-.5Z"/><path d="M53.18,43.11c.15,.09,.32,.13,.49,.13,.35,0,.67-.19,.85-.49,.09-.15,.13-.32,.13-.49,0-.35-.19-.67-.49-.85-.15-.09-.32-.13-.49-.13-.35,0-.67,.19-.85,.49-.09,.15-.13,.32-.13,.49,0,.35,.19,.67,.49,.85Z"/><path d="M43.24,44.08c-1.29,0-1.29,1.96,0,1.96,.35,0,.67-.19,.85-.49,.37-.65-.09-1.47-.85-1.47Z"/><path d="M35.99,6.32c-.87,0-1.74,.22-2.5,.62-.25,.13-.45,.15-.75-.15-.85-.85-1.99-1.33-3.2-1.33h0c-2.5,0-4.54,2.04-4.54,4.54,0,1.17,.45,2.29,1.26,3.13,.41,.43,.66,1.07,.66,1.68,0,2.43,1.98,4.42,4.42,4.42,1.38,0,2.69-.66,3.52-1.76,.12-.15,.83-.47,1.84-.41,1.09,.07,2.14-.33,2.99-1.13,1.08-1.01,1.72-2.6,1.72-4.24,0-2.97-2.42-5.39-5.4-5.39Zm2.31,8.17c-.31,.29-.81,.62-1.49,.59-1.52-.1-2.94,.39-3.55,1.2-.45,.6-1.17,.96-1.92,.96-1.33,0-2.42-1.08-2.42-2.41,0-1.12-.45-2.27-1.22-3.07-.46-.47-.71-1.1-.71-1.75,0-1.4,1.14-2.54,2.54-2.54,.68,0,1.31,.27,1.79,.75,.88,.87,2.04,1.06,3.1,.5,.48-.25,1.03-.39,1.57-.39,1.87,0,3.39,1.52,3.39,3.39,0,1.1-.41,2.14-1.09,2.78Z"/><path d="M22.32,11.68c-1.55,0-2.81,1.26-2.81,2.81s1.26,2.81,2.81,2.81,2.8-1.26,2.8-2.81-1.26-2.81-2.8-2.81Zm0,3.61c-.44,0-.81-.37-.81-.81s.37-.81,.81-.81,.8,.37,.8,.81-.37,.81-.8,.81Z"/><path d="M47.28,10.46c1.55,0,2.81-1.26,2.81-2.81s-1.26-2.81-2.81-2.81-2.81,1.26-2.81,2.81,1.26,2.81,2.81,2.81Zm0-3.61c.44,0,.81,.37,.81,.81s-.37,.81-.81,.81-.81-.37-.81-.81,.37-.81,.81-.81Z"/><path d="M44.14,14.53c0,.35,.19,.67,.49,.85,.15,.09,.32,.13,.49,.13,.35,0,.67-.19,.85-.49,.09-.15,.13-.32,.13-.49,0-.35-.19-.67-.49-.85-.15-.09-.32-.13-.49-.13-.35,0-.67,.19-.85,.49-.09,.15-.13,.32-.13,.49Z"/><path d="M19.41,6.76c-.35,0-.67,.19-.85,.49-.09,.15-.13,.32-.13,.49,0,.35,.19,.67,.49,.85,.15,.09,.32,.13,.49,.13,.35,0,.67-.19,.85-.49,.09-.15,.13-.32,.13-.49,0-.35-.19-.67-.49-.85-.15-.09-.32-.13-.49-.13Z"/></g><g id="x"/><g id="y"/><g id="a`"/><g id="aa"/><g id="ab"/><g id="ac"/><g id="ad"/><g id="ae"/><g id="af"/><g id="ag"/><g id="ah"/><g id="ai"/><g id="aj"/><g id="ak"/><g id="al"/><g id="am"/><g id="an"/><g id="ao"/><g id="ap"/><g id="aq"/><g id="ar"/><g id="as"/><g id="at"/><g id="au"/><g id="av"/><g id="aw"/><g id="ax"/></svg>