<?xml version="1.0" ?><!DOCTYPE svg  PUBLIC '-//W3C//DTD SVG 1.1//EN'  'http://www.w3.org/Graphics/SVG/1.1/DTD/svg11.dtd'><svg enable-background="new 0 0 91 91" height="91px" id="Layer_1" version="1.1" viewBox="0 0 91 91" width="91px" xml:space="preserve" xmlns="http://www.w3.org/2000/svg" xmlns:xlink="http://www.w3.org/1999/xlink"><g><g><g><g><line fill="#E4E4E6" x1="88.617" x2="88.617" y1="8.169" y2="84.261"/><path d="M88.617,86.5c-1.237,0-2.24-1.003-2.24-2.239V8.169c0-1.237,1.003-2.24,2.24-2.24s2.24,1.003,2.24,2.24      v76.091C90.857,85.497,89.854,86.5,88.617,86.5z" fill="#434B56"/></g><g><path d="M88.617,52.313H75.459C73.578,24.981,88.617,8.169,88.617,8.169V52.313z" fill="#E4E4E6"/><path d="M88.617,54.555H75.459c-1.179,0-2.155-0.912-2.236-2.087C71.301,24.513,86.309,7.391,86.947,6.676      c0.62-0.692,1.603-0.93,2.47-0.599c0.867,0.332,1.44,1.164,1.44,2.093v44.143C90.857,53.551,89.854,54.555,88.617,54.555z       M77.583,50.073h8.794V15.282C82.428,21.894,76.989,34.036,77.583,50.073z" fill="#434B56"/></g><path d="M17.252,86.124c-1.237,0-2.241-1.003-2.241-2.241V43.155c0-1.237,1.003-2.241,2.241-2.241     c1.236,0,2.24,1.004,2.24,2.241v40.728C19.492,85.121,18.488,86.124,17.252,86.124z" fill="#434B56"/><g><path d="M32.087,25.846c0,9.563-6.646,17.309-14.835,17.309c-8.195,0-14.839-7.745-14.839-17.309      c0-9.56,6.644-17.3,14.839-17.3C25.441,8.546,32.087,16.287,32.087,25.846z" fill="#E4E4E6"/><path d="M17.252,45.396c-9.418,0-17.08-8.77-17.08-19.549c0-10.775,7.662-19.541,17.08-19.541      c9.415,0,17.075,8.766,17.075,19.541C34.327,36.625,26.667,45.396,17.252,45.396z M17.252,10.786      c-6.947,0-12.6,6.756-12.6,15.06c0,8.309,5.652,15.067,12.6,15.067c6.945,0,12.596-6.759,12.596-15.067      C29.848,17.542,24.197,10.786,17.252,10.786z" fill="#434B56"/></g><path d="M58.042,41.5h-9.167c-5.534,0-10.036-4.505-10.036-10.041V8.546c0-1.237,1.003-2.241,2.24-2.241     c1.237,0,2.24,1.003,2.24,2.241v22.914c0,3.066,2.493,5.562,5.556,5.562h9.167c3.064,0,5.557-2.495,5.557-5.562V8.546     c0-1.237,1.003-2.241,2.241-2.241c1.237,0,2.24,1.003,2.24,2.241v22.914C68.08,36.996,63.576,41.5,58.042,41.5z" fill="#434B56"/><path d="M53.46,86.124c-1.237,0-2.24-1.003-2.24-2.241V39.261c0-1.237,1.003-2.24,2.24-2.24s2.24,1.003,2.24,2.24     v44.622C55.7,85.121,54.697,86.124,53.46,86.124z" fill="#434B56"/><g><line fill="#E4E4E6" x1="53.46" x2="53.46" y1="26.678" y2="8.546"/><path d="M53.46,28.918c-1.237,0-2.24-1.003-2.24-2.24V8.546c0-1.237,1.003-2.241,2.24-2.241      s2.24,1.003,2.24,2.241v18.132C55.7,27.915,54.697,28.918,53.46,28.918z" fill="#434B56"/></g></g></g></g></svg>