<?xml version="1.0" ?><!DOCTYPE svg  PUBLIC '-//W3C//DTD SVG 1.1//EN'  'http://www.w3.org/Graphics/SVG/1.1/DTD/svg11.dtd'><svg enable-background="new -266.5 -532.5 512 512" height="512px" id="Layer_1" version="1.1" viewBox="-266.5 -532.5 512 512" width="512px" xml:space="preserve" xmlns="http://www.w3.org/2000/svg" xmlns:xlink="http://www.w3.org/1999/xlink"><g><g><circle cx="125.695" cy="-118.203" fill="#FCECAC" r="23.023"/></g><g><circle cx="152.732" cy="-160.105" fill="#FCECAC" r="11.511"/></g><g><circle cx="-146.694" cy="-118.203" fill="#FCECAC" r="23.023"/></g><g><circle cx="-173.731" cy="-160.105" fill="#FCECAC" r="11.511"/></g><g><circle cx="-10.5" cy="-276.5" fill="#FCECAC" r="176.364"/></g></g><g><g><g><ellipse cx="-10.032" cy="-284.603" fill="#FFFFFF" rx="147" ry="96"/></g><g><path d="M69.795-365.223c33.738,21.084,53.75,51.472,50.007,82.66c-6.139,51.178-73.923,85.13-151.399,75.835     c-61.818-7.417-111.125-40.128-125.412-79.044c-0.007,0.39-0.022,0.779-0.022,1.17c0,53.02,65.814,96,147,96s147-42.98,147-96     C136.968-318.402,110.219-348.118,69.795-365.223z" fill="#D8D8D8"/></g><g><path d="M-10.032-183.603c-40.225,0-78.111-10.274-106.679-28.931c-29.226-19.086-45.321-44.681-45.321-72.069     s16.095-52.982,45.321-72.069c28.568-18.657,66.454-28.931,106.679-28.931s78.111,10.274,106.679,28.931     c29.226,19.086,45.321,44.681,45.321,72.069s-16.095,52.982-45.321,72.069C68.079-193.878,30.193-183.603-10.032-183.603z      M-10.032-375.603c-78.299,0-142,40.822-142,91s63.701,91,142,91s142-40.822,142-91S68.267-375.603-10.032-375.603z" fill="#58595B"/></g><g><path d="M-10.032-224.603c-29.063,0-56.462-6.749-77.148-19.004c-21.507-12.742-33.352-29.964-33.352-48.496     s11.845-35.754,33.352-48.496c20.687-12.255,48.085-19.004,77.148-19.004s56.462,6.749,77.148,19.004     c21.507,12.742,33.352,29.964,33.352,48.496s-11.845,35.754-33.352,48.496C46.43-231.352,19.031-224.603-10.032-224.603z      M-10.032-349.603c-27.297,0-52.885,6.253-72.051,17.608c-18.346,10.868-28.449,25.035-28.449,39.892     s10.103,29.024,28.449,39.892c19.167,11.354,44.754,17.608,72.051,17.608s52.885-6.253,72.051-17.608     c18.346-10.868,28.449-25.035,28.449-39.892s-10.103-29.024-28.449-39.892C42.853-343.35,17.265-349.603-10.032-349.603z" fill="#58595B"/></g></g><g><g><path d="M156.155-255.061c0,0-21.349-3.849-19.732-62.681c2.124-77.317,38.452-100.414,38.556-90.68     c0.607,57.271-1.822,263.45-1.822,263.45s-23.983,12.408-25.805-15.272C145.53-187.926,156.155-255.061,156.155-255.061z" fill="#FFFFFF"/></g><g><path d="M174.978-408.422c-0.051-4.813-8.958-1.592-18.208,12.232c1.921,13.251,3.028,28.769,3.028,45.358     c0,40.007-6.429,73.783-15.235,84.545c5.447,10.113,11.592,11.226,11.592,11.226s-10.625,67.135-8.803,94.816     c1.822,27.681,25.805,15.272,25.805,15.272S175.585-351.15,174.978-408.422z" fill="#D8D8D8"/></g><g><path d="M161.952-137.199c-5.44,0-18.241-2.214-19.59-22.717c-1.606-24.406,6.028-77.337,8.267-92.115     c-7.405-4.439-20.493-18.94-19.205-65.848c1.012-36.822,9.614-60.288,16.652-73.49c7.702-14.446,17.699-24.153,24.876-24.153     c4.027,0,6.982,2.963,7.025,7.046c0.601,56.672-1.797,261.5-1.822,263.562c-0.021,1.848-1.061,3.533-2.702,4.382     C174.794-140.19,168.815-137.199,161.952-137.199z M157.146-259.97c1.319,0.158,2.343,0.819,3.164,1.88     c0.841,1.09,0.999,2.451,0.784,3.811c-0.105,0.666-10.516,66.901-8.752,93.707c0.88,13.374,7.224,13.374,9.612,13.374     c2.299,0,4.568-0.575,6.242-1.14c0.299-26.029,2.231-197.664,1.824-255.43c-3.33,2.591-8.563,8.229-13.737,18.287     c-6.263,12.177-13.926,33.838-14.861,67.878C140.033-267.098,155.823-260.434,157.146-259.97z" fill="#58595B"/></g></g><g><g><path d="M-139.192-342.334c2.324-10.322-4.068-54.647-4.068-54.647c-1.848-6.527-6.385-6.181-10.045-5.541     c-2.792,0.488-4.478,4.25-4.478,4.25s0.707,40.758,0.707,46.831s0.526,1.821,0.526,1.821s-1.744-47.968-1.744-53.433     c0-3.937-3.056-7.514-8.46-7.742c-4.537-0.191-8.46,3.805-8.46,7.742c0,5.465-1.744,53.433-1.744,53.433s-0.304,4.402-0.304-1.67     s1.49-46.906,1.49-46.906s-1.75-4.702-6.071-4.782c-3.216-0.059-7.21-0.531-9.412,5.389c0,0-6.652,44.933-4.328,55.255     c2.324,10.322,11.387,18.519,19.787,25.502c0,0-2.418,107.474-8.81,151.798c-0.523,3.628,7.586,20.47,19.432,20.341     c11.034-0.12,16.758-16.962,16.271-20.341c-6.392-44.325-8.81-151.798-8.81-151.798     C-149.13-321.993-141.516-332.012-139.192-342.334z" fill="#FFFFFF"/></g><g><path d="M-139.192-342.334c2.324-10.322-4.068-54.647-4.068-54.647c-1.848-6.527-6.385-6.181-10.045-5.541     c-2.792,0.488-4.478,4.25-4.478,4.25s0.707,40.758,0.707,46.831s0.526,1.821,0.526,1.821s-1.744-47.968-1.744-53.433     c0-3.937-3.056-7.514-8.46-7.742c-4.537-0.191-8.46,3.805-8.46,7.742c0,5.465-1.744,53.433-1.744,53.433s-0.304,4.402-0.304-1.67     s1.49-46.906,1.49-46.906s-1.75-4.702-6.071-4.782c-3.216-0.059-7.21-0.531-9.412,5.389c0,0-6.652,44.933-4.328,55.255     c2.324,10.322,11.387,18.519,19.787,25.502c0,0-2.418,107.474-8.81,151.798c-0.523,3.628,7.586,20.47,19.432,20.341     c11.034-0.12,16.758-16.962,16.271-20.341c-6.392-44.325-8.81-151.798-8.81-151.798     C-149.13-321.993-141.516-332.012-139.192-342.334z" fill="#FFFFFF"/></g><g><path d="M-150.409-177.253c-6.883,7.802-18.228,2.958-19.821-2.353c-1.822-6.072,4.857-145.727,4.857-145.727     c-14.573,1.215-27.654-19.299-30.701-24.079c-0.016,3.003,0.128,5.463,0.491,7.078c2.324,10.322,11.387,18.519,19.787,25.502     c0,0-2.418,107.474-8.81,151.798c-0.523,3.628,7.586,20.47,19.432,20.341c11.034-0.12,16.758-16.962,16.271-20.341     C-149.432-168.703-149.933-172.814-150.409-177.253z" fill="#D8D8D8"/></g><g><path d="M-165.309-139.692c-5.912,0-11.62-2.982-16.504-8.623c-4.321-4.99-8.398-12.875-7.741-17.433     c5.749-39.868,8.296-132.688,8.701-148.8c-8.445-7.159-17.131-15.69-19.607-26.688c-2.458-10.916,3.565-52.392,4.26-57.085     c0.051-0.345,0.138-0.683,0.26-1.01c3.227-8.679,10.12-8.679,12.385-8.679c0.429,0,0.853,0.01,1.268,0.021l0.536,0.013     c0.884,0.016,1.713,0.135,2.488,0.335c2.052-4.828,7.146-8.386,12.72-8.149c5.974,0.251,10.673,3.551,12.465,8.328     c1.111-0.193,2.433-0.385,3.866-0.385c5.851,0,10.029,3.375,11.764,9.503c0.06,0.213,0.106,0.43,0.138,0.649     c0.668,4.63,6.452,45.552,3.997,56.459c-2.344,10.41-9.403,20.736-18.333,27.061c0.434,17.121,2.986,108.857,8.692,148.429     c0.594,4.121-2.523,13.144-7.584,19.052c-3.877,4.527-8.574,6.948-13.581,7.002L-165.309-139.692z M-179.616-164.598     c0.392,2.854,6.576,14.906,14.309,14.907h0.081c6.627-0.072,11.229-12.087,11.351-14.801     c-6.343-44.213-8.736-147.832-8.835-152.227c-0.041-1.794,0.884-3.472,2.422-4.397c7.745-4.657,14.263-13.625,16.22-22.315     c1.535-6.816-1.673-35.644-4.088-52.482c-0.597-1.933-1.156-1.933-2.055-1.933c-0.626,0-1.34,0.1-1.987,0.208     c-0.157,0.132-0.363,0.377-0.56,0.654c0.064,3.736,0.248,14.481,0.408,24.673c0.409,11.788,0.798,22.51,0.798,22.51     c0.01,0.266-0.002,0.532-0.034,0.795c-0.597,4.821-3.206,5.833-5.291,5.833c-5.198,0-5.198-5.378-5.198-8.268     c0-2.182-0.092-9.15-0.274-20.712c-0.625-18.051-0.943-28.479-0.943-30.899c0-1.599-1.407-2.651-3.671-2.746l-0.103-0.002     c-1.676,0-3.146,1.713-3.146,2.748c0,5.493-1.676,51.652-1.747,53.615c-0.002,0.054-0.005,0.108-0.008,0.163     c-0.284,4.106-2.023,6.191-5.171,6.198c-0.003,0-0.007,0-0.011,0c-1.324,0-2.601-0.529-3.539-1.464     c-1.572-1.569-1.572-2.979-1.572-6.748c0-5.548,1.188-38.646,1.446-45.785c-0.294-0.43-0.718-0.896-1.119-0.903l-0.606-0.014     c-0.332-0.009-0.671-0.018-1.014-0.018c-1.568,0-2.124,0-2.835,1.711c-2.51,17.097-5.841,46.086-4.314,52.867     c1.969,8.746,10.378,16.332,18.105,22.755c1.173,0.975,1.837,2.432,1.802,3.957C-170.896-312.328-173.284-208.87-179.616-164.598     z" fill="#58595B"/></g></g></g></svg>